<svg width="80" height="17" viewBox="0 0 80 17" fill="none" xmlns="http://www.w3.org/2000/svg">
<path fill-rule="evenodd" clip-rule="evenodd" d="M3.29891 9.828L2.52 11.2942V16.2196H0V0.183273H2.52V7.17055L5.81891 0.183273H8.33891L4.83382 7.33091L8.33891 16.2196H5.75018L3.29891 9.828ZM11.8964 12.5313C11.8964 13.1116 12.0147 13.5202 12.2515 13.7569C12.4882 13.9936 12.8051 14.112 13.2022 14.112C13.5993 14.112 13.9162 13.9936 14.1529 13.7569C14.3896 13.5202 14.508 13.1116 14.508 12.5313V3.87164C14.508 3.29127 14.3896 2.88273 14.1529 2.646C13.9162 2.40927 13.5993 2.29091 13.2022 2.29091C12.8051 2.29091 12.4882 2.40927 12.2515 2.646C12.0147 2.88273 11.8964 3.29127 11.8964 3.87164V12.5313ZM9.37636 4.032C9.37636 2.73381 9.70472 1.73728 10.3615 1.04236C11.0182 0.347451 11.9651 0 13.2022 0C14.4393 0 15.3862 0.347451 16.0429 1.04236C16.6996 1.73728 17.028 2.73381 17.028 4.032V12.3709C17.028 13.6691 16.6996 14.6656 16.0429 15.3605C15.3862 16.0555 14.4393 16.4029 13.2022 16.4029C11.9651 16.4029 11.0182 16.0555 10.3615 15.3605C9.70472 14.6656 9.37636 13.6691 9.37636 12.3709V4.032ZM21.1582 4.60473V16.2196H18.8902V0.183273H22.0516L24.6404 9.78218V0.183273H26.8855V16.2196H24.2967L21.1582 4.60473ZM28.6331 4.032C28.6331 2.73381 28.9424 1.73728 29.5609 1.04236C30.1795 0.347451 31.1073 0 32.3444 0C33.5815 0 34.5093 0.347451 35.1278 1.04236C35.7464 1.73728 36.0556 2.73381 36.0556 4.032V4.536H33.6731V3.87164C33.6731 3.29127 33.5624 2.88273 33.3409 2.646C33.1195 2.40927 32.8102 2.29091 32.4131 2.29091C32.016 2.29091 31.7067 2.40927 31.4853 2.646C31.2638 2.88273 31.1531 3.29127 31.1531 3.87164C31.1531 4.42146 31.2753 4.90636 31.5196 5.32636C31.764 5.74637 32.0695 6.14345 32.436 6.51764C32.8025 6.89182 33.1958 7.266 33.6158 7.64018C34.0358 8.01436 34.4291 8.42291 34.7956 8.86582C35.1622 9.30873 35.4676 9.81272 35.712 10.3778C35.9564 10.9429 36.0785 11.6073 36.0785 12.3709C36.0785 13.6691 35.7616 14.6656 35.1278 15.3605C34.494 16.0555 33.5586 16.4029 32.3215 16.4029C31.0844 16.4029 30.1489 16.0555 29.5151 15.3605C28.8813 14.6656 28.5644 13.6691 28.5644 12.3709V11.3858H30.9469V12.5313C30.9469 13.1116 31.0653 13.5164 31.302 13.7455C31.5387 13.9745 31.8556 14.0891 32.2527 14.0891C32.6498 14.0891 32.9667 13.9745 33.2035 13.7455C33.4402 13.5164 33.5585 13.1116 33.5585 12.5313C33.5585 11.9815 33.4364 11.4965 33.192 11.0765C32.9476 10.6565 32.6422 10.2595 32.2756 9.88527C31.9091 9.51109 31.5158 9.13691 31.0958 8.76273C30.6758 8.38854 30.2825 7.98 29.916 7.53709C29.5495 7.09418 29.244 6.59018 28.9996 6.02509C28.7553 5.46 28.6331 4.79564 28.6331 4.032ZM37.0473 0.183273H44.8364V2.47418H42.2018V16.2196H39.6818V2.47418H37.0473V0.183273ZM51.4636 16.2196C51.4331 16.1127 51.4025 16.0135 51.372 15.9218C51.3415 15.8302 51.3147 15.7156 51.2918 15.5782C51.2689 15.4407 51.2536 15.2651 51.246 15.0513C51.2384 14.8375 51.2345 14.5702 51.2345 14.2495V11.7295C51.2345 10.9811 51.1047 10.4542 50.8451 10.1487C50.5855 9.84327 50.1655 9.69054 49.5851 9.69054H48.7145V16.2196H46.1945V0.183273H49.9975C51.3109 0.183273 52.2616 0.488724 52.8496 1.09964C53.4376 1.71055 53.7316 2.63454 53.7316 3.87164V5.13164C53.7316 6.7811 53.1818 7.86545 52.0822 8.38473C52.7236 8.64436 53.1627 9.06818 53.3995 9.65618C53.6362 10.2442 53.7545 10.9582 53.7545 11.7982V14.2724C53.7545 14.6695 53.7698 15.0169 53.8004 15.3147C53.8309 15.6125 53.9073 15.9142 54.0295 16.2196H51.4636ZM48.7146 2.47418V7.39964H49.6996C50.1731 7.39964 50.5435 7.27746 50.8107 7.03309C51.078 6.78873 51.2116 6.34582 51.2116 5.70436V4.12364C51.2116 3.54327 51.1086 3.12327 50.9024 2.86364C50.6962 2.604 50.3716 2.47418 49.9287 2.47418H48.7146ZM58.068 0.183273V12.5542C58.068 13.1345 58.1864 13.5393 58.4231 13.7684C58.6598 13.9975 58.9767 14.112 59.3738 14.112C59.7709 14.112 60.0878 13.9975 60.3245 13.7684C60.5613 13.5393 60.6796 13.1345 60.6796 12.5542V0.183273H63.0622V12.3938C63.0622 13.692 62.7453 14.6885 62.1115 15.3835C61.4776 16.0784 60.5422 16.4258 59.3051 16.4258C58.068 16.4258 57.1325 16.0784 56.4987 15.3835C55.8649 14.6885 55.548 13.692 55.548 12.3938V0.183273H58.068ZM71.9247 0.183273H79.7138V2.47418H77.0793V16.2196H74.5593V2.47418H71.9247V0.183273Z" fill="#171819"/>
</svg>
