<svg width="102" height="21" viewBox="0 0 102 21" fill="none" xmlns="http://www.w3.org/2000/svg">
<path fill-rule="evenodd" clip-rule="evenodd" d="M4.21527 12.558L3.22 14.4315V20.7251H0V0.234182H3.22V9.16236L7.43527 0.234182H10.6553L6.17655 9.36727L10.6553 20.7251H7.34745L4.21527 12.558ZM15.2009 16.0122C15.2009 16.7538 15.3521 17.2758 15.6546 17.5783C15.9571 17.8808 16.3621 18.032 16.8695 18.032C17.3768 18.032 17.7818 17.8808 18.0843 17.5783C18.3868 17.2758 18.538 16.7538 18.538 16.0122V4.94709C18.538 4.20551 18.3868 3.68349 18.0843 3.381C17.7818 3.07851 17.3768 2.92727 16.8695 2.92727C16.3621 2.92727 15.9571 3.07851 15.6546 3.381C15.3521 3.68349 15.2009 4.20551 15.2009 4.94709V16.0122ZM11.9809 5.152C11.9809 3.4932 12.4005 2.21985 13.2396 1.33191C14.0788 0.443965 15.2887 0 16.8695 0C18.4502 0 19.6601 0.443965 20.4993 1.33191C21.3384 2.21985 21.758 3.4932 21.758 5.152V15.8073C21.758 17.4661 21.3384 18.7394 20.4993 19.6274C19.6601 20.5153 18.4502 20.9593 16.8695 20.9593C15.2887 20.9593 14.0788 20.5153 13.2396 19.6274C12.4005 18.7394 11.9809 17.4661 11.9809 15.8073V5.152ZM27.0355 5.88382V20.7251H24.1375V0.234182H28.1771L31.4849 12.4995V0.234182H34.3536V20.7251H31.0458L27.0355 5.88382ZM36.5867 5.152C36.5867 3.4932 36.9819 2.21985 37.7723 1.33191C38.5626 0.443965 39.7482 0 41.3289 0C42.9096 0 44.0952 0.443965 44.8855 1.33191C45.6759 2.21985 46.0711 3.4932 46.0711 5.152V5.796H43.0267V4.94709C43.0267 4.20551 42.8852 3.68349 42.6023 3.381C42.3193 3.07851 41.9241 2.92727 41.4167 2.92727C40.9093 2.92727 40.5142 3.07851 40.2312 3.381C39.9482 3.68349 39.8067 4.20551 39.8067 4.94709C39.8067 5.64964 39.9628 6.26924 40.2751 6.80591C40.5873 7.34258 40.9776 7.84997 41.446 8.32809C41.9144 8.80621 42.4169 9.28433 42.9535 9.76245C43.4902 10.2406 43.9927 10.7626 44.4611 11.3285C44.9295 11.8945 45.3198 12.5385 45.632 13.2605C45.9442 13.9826 46.1004 14.8315 46.1004 15.8073C46.1004 17.4661 45.6954 18.7394 44.8855 19.6274C44.0757 20.5153 42.8804 20.9593 41.2996 20.9593C39.7189 20.9593 38.5236 20.5153 37.7137 19.6274C36.9038 18.7394 36.4989 17.4661 36.4989 15.8073V14.5485H39.5433V16.0122C39.5433 16.7538 39.6945 17.2709 39.997 17.5636C40.2995 17.8564 40.7044 18.0027 41.2118 18.0027C41.7192 18.0027 42.1241 17.8564 42.4266 17.5636C42.7291 17.2709 42.8804 16.7538 42.8804 16.0122C42.8804 15.3096 42.7242 14.69 42.412 14.1534C42.0998 13.6167 41.7095 13.1093 41.2411 12.6312C40.7727 12.1531 40.2702 11.6749 39.7335 11.1968C39.1969 10.7187 38.6944 10.1967 38.226 9.63073C37.7576 9.06479 37.3673 8.42079 37.0551 7.69873C36.7428 6.97666 36.5867 6.12776 36.5867 5.152ZM47.3382 0.234182H57.2909V3.16145H53.9245V20.7251H50.7045V3.16145H47.3382V0.234182ZM65.7591 20.7251C65.7201 20.5885 65.681 20.4616 65.642 20.3445C65.603 20.2275 65.5688 20.0811 65.5395 19.9055C65.5103 19.7298 65.4908 19.5054 65.481 19.2322C65.4712 18.959 65.4664 18.6175 65.4664 18.2076V14.9876C65.4664 14.0314 65.3005 13.3581 64.9687 12.9678C64.637 12.5775 64.1003 12.3824 63.3587 12.3824H62.2464V20.7251H59.0264V0.234182H63.8856C65.5639 0.234182 66.7787 0.624481 67.5301 1.40509C68.2814 2.1857 68.6571 3.36636 68.6571 4.94709V6.55709C68.6571 8.66474 67.9545 10.0503 66.5495 10.7138C67.3691 11.0456 67.9301 11.5871 68.2326 12.3385C68.5351 13.0898 68.6864 14.0021 68.6864 15.0755V18.2369C68.6864 18.7443 68.7059 19.1883 68.7449 19.5688C68.7839 19.9494 68.8815 20.3348 69.0376 20.7251H65.7591ZM62.2464 3.16145V9.45509H63.5051C64.1101 9.45509 64.5833 9.29897 64.9248 8.98673C65.2663 8.67448 65.4371 8.10855 65.4371 7.28891V5.26909C65.4371 4.52751 65.3054 3.99085 65.0419 3.65909C64.7785 3.32733 64.3638 3.16145 63.7978 3.16145H62.2464ZM74.198 0.234182V16.0415C74.198 16.783 74.3492 17.3002 74.6517 17.5929C74.9542 17.8856 75.3591 18.032 75.8665 18.032C76.3739 18.032 76.7789 17.8856 77.0814 17.5929C77.3838 17.3002 77.5351 16.783 77.5351 16.0415V0.234182H80.5795V15.8365C80.5795 17.4953 80.1745 18.7687 79.3646 19.6566C78.5548 20.5446 77.3595 20.9885 75.7787 20.9885C74.198 20.9885 73.0027 20.5446 72.1928 19.6566C71.3829 18.7687 70.978 17.4953 70.978 15.8365V0.234182H74.198ZM91.9038 0.234182H101.857V3.16145H98.4902V20.7251H95.2702V3.16145H91.9038V0.234182Z" fill="white"/>
</svg>
